<svg xmlns="http://www.w3.org/2000/svg" fill="none" viewBox="0 0 24 24" id="Laravel--Streamline-Svg-Logos" height="24" width="24"><desc>Laravel Streamline Icon: https://streamlinehq.com</desc><path fill="#ff2d20" d="M23.401 5.566325c0.00845 0.031325 0.01285 0.063625 0.01285 0.096075v5.044225c0 0.131775 -0.070475 0.253475 -0.1848 0.31905l-4.2337 2.4375v4.831375c0 0.131475 -0.069875 0.25285 -0.1839 0.31905L9.973975 23.701025c-0.020225 0.0115 -0.0423 0.01885 -0.064375 0.02665 -0.008275 0.002775 -0.016075 0.007825 -0.024825 0.010125 -0.061775 0.016275 -0.1267 0.016275 -0.188475 0 -0.010125 -0.00275 -0.019325 -0.008275 -0.028975 -0.01195 -0.020225 -0.00735 -0.041375 -0.0138 -0.060675 -0.024825L0.770995 18.6136c-0.114245 -0.065625 -0.1848125 -0.1873 -0.1848125 -0.31905V3.1619c0 -0.0331 0.0045975 -0.065275 0.0128725 -0.09655 0.0027575 -0.010575 0.009195 -0.020225 0.0128725 -0.0308 0.006895 -0.0193 0.0133325 -0.039075 0.023445 -0.057 0.0068975 -0.01195 0.01701 -0.0216 0.025285 -0.03265 0.010575 -0.0147 0.02023 -0.029875 0.0326425 -0.04275 0.010575 -0.010575 0.024365 -0.0184 0.03632 -0.027575 0.0133325 -0.01105 0.025285 -0.023 0.040455 -0.031725h0.00046L5.1886 0.2991325c0.113825 -0.06551 0.253925 -0.06551 0.367775 0L9.974425 2.84285h0.000925c0.0147 0.0092 0.027125 0.020675 0.04045 0.03125 0.01195 0.0092 0.0253 0.017475 0.035875 0.0276 0.012875 0.013325 0.02205 0.0285 0.0331 0.0432 0.0078 0.01105 0.018375 0.0207 0.024825 0.03265 0.010575 0.0184 0.01655 0.0377 0.0239 0.057 0.003675 0.010575 0.0101 0.020225 0.012875 0.031275 0.00845 0.031325 0.012775 0.063625 0.012875 0.096075v9.4517l3.68155 -2.11985V5.66195c0 -0.0322 0.0046 -0.064825 0.012875 -0.095625 0.003225 -0.01105 0.0092 -0.0207 0.012875 -0.031275 0.00735 -0.0193 0.0138 -0.039075 0.0239 -0.057 0.0069 -0.01195 0.017 -0.0216 0.024825 -0.03265 0.011025 -0.0147 0.020225 -0.029875 0.0331 -0.04275 0.010575 -0.010575 0.0239 -0.0184 0.035875 -0.027575 0.013775 -0.01105 0.025725 -0.023 0.04045 -0.031725h0.00045l4.418525 -2.543725c0.1138 -0.0656 0.25395 -0.0656 0.367775 0L23.2295 5.34335c0.01565 0.0092 0.0276 0.020675 0.041375 0.03125 0.0115 0.0092 0.024825 0.017475 0.0354 0.0276 0.012875 0.013325 0.022075 0.0285 0.0331 0.0432 0.008275 0.01105 0.0184 0.0207 0.024825 0.03265 0.010575 0.017925 0.01655 0.0377 0.023925 0.057 0.004125 0.010575 0.0101 0.020225 0.012875 0.031275ZM22.677375 10.49375V6.299125l-1.5461 0.89005 -2.135925 1.2298v4.194625l3.682475 -2.11985h-0.00045ZM18.259325 18.081675V13.8843l-2.101 1.1999 -5.99955 3.424125v4.2369l8.10055 -4.66355ZM1.3226775 3.798625v14.28305L9.4223 22.744775v-4.236l-4.231425 -2.39475 -0.001375 -0.000925 -0.001825 -0.000925c-0.01425 -0.008275 -0.0262 -0.020225 -0.03955 -0.03035 -0.011475 -0.009175 -0.024825 -0.01655 -0.034925 -0.02665l-0.000925 -0.001375c-0.01195 -0.0115 -0.020225 -0.02575 -0.03035 -0.038625 -0.0092 -0.012425 -0.020225 -0.023 -0.027575 -0.03585l-0.000475 -0.0014c-0.008275 -0.013775 -0.013325 -0.030325 -0.0193 -0.045975 -0.005975 -0.013775 -0.0138 -0.02665 -0.017475 -0.041375v-0.00045c-0.0046 -0.017475 -0.0055 -0.03585 -0.00735 -0.0538 -0.001825 -0.013775 -0.005525 -0.027575 -0.005525 -0.041375V5.918475l-2.13545 -1.23025 -1.5460975 -0.889125v-0.000475ZM5.37295 1.0429825 1.691845 3.1619l3.68018 2.118925 3.680625 -2.119375 -3.680625 -2.1184675h0.000925Zm1.914325 13.2238175 2.135475 -1.229325V3.798625l-1.5461 0.89005 -2.135925 1.2298v9.238825l1.54655 -0.8905Zm11.340275 -10.723325 -3.680625 2.118925 3.680625 2.118925 3.6802 -2.119375 -3.6802 -2.118475Zm-0.368225 4.8755 -2.13595 -1.2298 -1.546075 -0.89005V10.49375l2.135475 1.22935 1.54655 0.8905V8.418975Zm-8.46925 9.4526L15.18875 14.789525l2.69865 -1.540125 -3.6779 -2.117525 -4.2346 2.437975 -3.859475 2.2219 3.67465 2.079825Z" stroke-width="0.25"></path></svg>
